<svg width="600" height="142" viewBox="0 0 600 142" fill="none" xmlns="http://www.w3.org/2000/svg">
<g clip-path="url(#clip0_81_39674)">
<rect width="141.509" height="142" rx="70.7547" fill="#FF5A42"/>
<path d="M58.1825 65.5895C53.8099 65.5895 50.2509 62.0182 50.2509 57.6375C50.2509 53.2568 53.8099 49.6855 58.1825 49.6855C62.5552 49.6855 66.1141 53.2568 66.1141 57.6375C66.1141 62.0182 62.5552 65.5895 58.1825 65.5895ZM91.2533 57.6375C91.2533 53.2497 87.6943 49.6855 83.3217 49.6855C78.949 49.6855 75.3901 53.2568 75.3901 57.6375C75.3901 62.0182 78.949 65.5895 83.3217 65.5895C87.6943 65.5895 91.2533 62.0182 91.2533 57.6375ZM118.324 118.733C118.324 110.036 116.003 101.885 111.956 94.8628C109.487 90.5815 106.366 86.7191 102.744 83.4105C102.666 83.3395 102.588 83.2756 102.517 83.2117C102.171 82.8993 101.824 82.594 101.47 82.2958C101.357 82.2035 101.244 82.1112 101.131 82.0118C100.968 81.8769 100.812 81.742 100.65 81.6071C100.65 81.6071 100.65 81.6071 100.65 81.6142C100.65 81.6142 100.65 81.6142 100.65 81.6071C100.529 81.5077 100.402 81.4154 100.282 81.316C100.168 81.2308 99.949 81.0533 99.949 81.0533C93.9278 76.3531 86.7604 73.0658 78.9278 71.7026C77.8311 71.5109 76.7203 71.9298 75.9986 72.7747L70.7486 78.9517L65.4986 72.7747C64.7769 71.9298 63.666 71.5109 62.5693 71.7026C54.4325 73.1155 47.0033 76.6087 40.8476 81.6071C39.5882 78.0429 38.9443 74.1876 39.0434 70.169C39.4821 52.987 53.5976 39.1846 70.7273 39.1704C88.225 39.1562 102.461 53.4414 102.461 70.9926C102.461 72.6327 102.333 74.2515 102.093 75.8206C101.937 76.8359 102.341 77.8583 103.14 78.5044C106.317 81.0817 109.147 83.9927 111.609 87.209C112.763 88.7142 115.126 88.3166 115.741 86.5203C117.411 81.6497 118.317 76.4241 118.317 70.9855C118.317 59.0433 113.944 48.1235 106.72 39.7526C105.949 38.858 105.935 37.5374 106.699 36.6357L112.727 29.5428C113.605 28.5133 112.876 26.9158 111.517 26.9158H96.8995C92.4986 26.9158 88.1118 26.3123 83.8806 25.0911C79.7061 23.8912 75.2981 23.2451 70.7415 23.2451C66.1849 23.2451 61.7769 23.8912 57.6023 25.0911C53.3712 26.3123 48.9844 26.9158 44.5835 26.9158H29.9655C28.6141 26.9158 27.8783 28.5062 28.7556 29.5428L34.7839 36.6357C35.5481 37.5374 35.5339 38.858 34.7627 39.7526C27.5387 48.1235 23.166 59.0433 23.166 70.9855C23.166 78.2559 24.7934 85.1429 27.6872 91.3128C27.9207 91.8098 28.1613 92.2926 28.4089 92.7825C28.4868 92.9387 28.5646 93.0949 28.6495 93.244C28.7415 93.4144 28.8264 93.5848 28.9184 93.7552C29.1165 94.1244 29.3217 94.4936 29.5269 94.8557C29.2934 95.2533 29.074 95.658 28.8547 96.0698C28.7132 96.3325 28.5788 96.5952 28.4443 96.8579C28.3806 96.9857 28.3099 97.1135 28.2462 97.2413C28.0693 97.5892 27.8995 97.9371 27.7368 98.2921C27.7226 98.3276 27.7014 98.3631 27.6872 98.3986C27.5033 98.782 27.3264 99.1725 27.1566 99.5701C24.5953 105.435 23.166 111.903 23.166 118.719C23.166 130.164 27.1778 140.665 33.8712 148.887C42.5882 159.601 55.8476 166.445 70.7061 166.459C72.7651 166.459 74.7957 166.331 76.791 166.069C79.041 165.778 79.6354 162.796 77.6684 161.645C72.8288 158.82 68.3783 155.376 64.3665 151.358C64.3665 151.358 64.3523 151.343 64.3453 151.336C63.2273 150.214 61.8901 149.327 60.3901 148.802C54.574 146.785 49.5151 143.114 45.7863 138.35C41.5481 132.94 39.0151 126.117 39.0151 118.719C39.0151 114.998 39.6589 111.427 40.8264 108.111C40.7769 108.069 40.7273 108.033 40.6849 107.991C40.7344 108.033 40.7839 108.069 40.8264 108.111C42.6519 102.957 45.7651 98.4057 49.7769 94.8557C55.3665 89.907 62.7038 86.8966 70.7273 86.8966C78.7509 86.8966 86.0882 89.907 91.6778 94.8557C95.6896 98.4057 98.8028 102.957 100.628 108.111C101.803 111.434 102.44 115.006 102.44 118.719C102.44 118.719 102.44 118.726 102.44 118.733V149.796C93.4184 148.155 85.0127 143.874 78.4467 137.3C69.8854 128.73 65.166 117.32 65.166 105.186C65.166 101.565 65.5906 97.9939 66.4255 94.522C66.8288 92.8393 65.2792 91.3412 63.6094 91.7814C59.4844 92.8819 55.6354 94.9338 52.3806 97.8164C52.1471 98.0223 51.9207 98.2353 51.6943 98.4483C50.2297 99.8399 49.3736 101.764 49.3311 103.788C49.317 104.256 49.317 104.725 49.317 105.193C49.317 113.458 50.9302 121.488 54.1212 129.042C57.199 136.341 61.6 142.887 67.2038 148.51C72.8075 154.134 79.3382 158.55 86.6047 161.638C94.1401 164.833 102.135 166.459 110.371 166.459H115.918C117.234 166.459 118.296 165.387 118.296 164.074V118.726L118.324 118.733Z" fill="#191B28"/>
</g>
<path d="M499.329 72.8423V103.696C499.329 104.597 498.601 105.329 497.702 105.329H487.634C486.735 105.329 486.006 104.597 486.006 103.696V102.425C482.921 104.945 478.867 106.5 474.325 106.5C464.476 106.5 456.756 99.422 456.756 90.1077C456.756 80.7935 464.476 73.6232 474.325 73.6232C478.478 73.6232 482.242 74.8798 485.235 77.116V72.9488C485.235 68.9732 482.723 66.4529 478.867 66.4529C476.002 66.4529 473.837 67.7734 473.002 69.889C472.719 70.6131 472.032 71.1029 471.254 71.1029H460.747C459.502 71.1029 458.575 69.9032 458.914 68.6963C461.228 60.4611 468.65 54.7178 479.051 54.7178C490.733 54.7178 499.322 62.0868 499.322 72.8565L499.329 72.8423ZM485.235 90.1077C485.235 86.906 482.143 84.3857 478.188 84.3857C474.233 84.3857 471.24 86.906 471.24 90.1077C471.24 93.3095 474.325 95.7304 478.188 95.7304C482.051 95.7304 485.235 93.2101 485.235 90.1077ZM564.438 90.2994H573.756C574.853 90.2994 575.801 91.0023 576.204 92.0245C576.94 93.8988 578.844 95.2476 581.087 95.2476C583.789 95.2476 585.912 93.6006 585.912 91.4637C585.912 88.3613 582.049 86.906 577.995 86.0327C570.565 84.2863 562.457 80.5024 562.457 70.322C562.457 60.1416 571.046 54.7107 580.796 54.7107C590.546 54.7107 597.431 60.0706 599.009 67.2622C599.341 68.7815 598.209 70.2297 596.66 70.2297H587.079C586.181 70.2297 585.303 69.7186 585.006 68.8667C584.419 67.1912 582.771 65.9631 580.697 65.9631C578.384 65.9631 576.544 67.5178 576.544 69.3565C576.544 72.1678 579.919 73.7226 584.752 74.8798C592.181 76.7256 599.999 80.2113 599.999 90.2071C599.999 100.203 591.41 106.5 580.98 106.5C571.138 106.5 563.645 100.785 562.075 93.2669C561.756 91.7477 562.881 90.3065 564.424 90.3065L564.438 90.2994ZM454.881 93.0752V103.44C454.881 104.484 454.039 105.336 452.992 105.336H420.756C419.716 105.336 418.867 104.484 418.867 103.44V40.3133C418.867 39.2697 419.709 38.4178 420.756 38.4178H431.943C432.983 38.4178 433.832 39.2697 433.832 40.3133V91.1797H452.985C454.025 91.1797 454.874 92.0316 454.874 93.0752H454.881ZM559.584 80.6089C559.584 95.347 549.445 106.5 535.839 106.5C529.754 106.5 524.638 103.98 520.973 99.8054V102.858C520.973 104.221 519.87 105.329 518.511 105.329H509.334C507.976 105.329 506.872 104.221 506.872 102.858V37.9777C506.872 36.6075 507.976 35.5 509.341 35.5H518.504C519.862 35.5 520.973 36.6075 520.973 37.9777V61.3911C524.638 57.2238 529.754 54.6965 535.839 54.6965C549.452 54.6965 559.584 65.8495 559.584 80.5947V80.6089ZM545.108 80.6089C545.108 73.6232 539.992 68.391 533.044 68.391C526.096 68.391 520.98 73.6303 520.98 80.6089C520.98 87.5875 526.096 92.8268 533.044 92.8268C539.992 92.8268 545.108 87.5875 545.108 80.6089Z" fill="#191B28"/>
<path d="M166.515 85.1573H178.663C179.456 85.1573 180.128 85.7324 180.269 86.5276C180.941 90.2551 184.323 93.0525 188.548 93.0525C193.09 93.0525 196.472 90.2267 196.472 86.6199C196.472 82.0404 190.967 79.6051 184.684 77.9508C175.026 75.5155 165.75 69.6651 165.75 56.8993C165.75 45.4967 175.408 36.9199 188.158 36.9199C200.908 36.9199 209.823 44.7796 210.779 55.5432C210.864 56.523 210.106 57.3821 209.13 57.3821H196.989C196.189 57.3821 195.524 56.7928 195.375 55.9976C194.753 52.7103 191.908 50.3673 188.165 50.3673C184.111 50.3673 181.111 52.902 181.111 56.31C181.111 60.5984 185.555 62.9414 192.029 64.688C202.175 67.4144 211.833 72.3844 211.833 85.6401C211.833 97.5326 201.786 106.493 188.356 106.493C174.927 106.493 165.828 98.2426 164.866 86.9891C164.781 86.0022 165.531 85.1502 166.515 85.1502V85.1573ZM258.071 72.6826V103.688C258.071 104.597 257.342 105.328 256.444 105.328H246.368C245.47 105.328 244.741 104.59 244.741 103.688V102.41C241.649 104.945 237.595 106.5 233.052 106.5C223.196 106.5 215.47 99.3857 215.47 90.0279C215.47 80.6701 223.196 73.4636 233.052 73.4636C237.206 73.4636 240.977 74.7274 243.97 76.971V72.782C243.97 68.7847 241.458 66.25 237.595 66.25C234.729 66.25 232.557 67.5777 231.729 69.7077C231.446 70.439 230.76 70.9289 229.981 70.9289H219.467C218.222 70.9289 217.295 69.7219 217.635 68.5078C219.948 60.2292 227.378 54.4569 237.786 54.4569C249.474 54.4569 258.071 61.8622 258.071 72.6826ZM243.97 90.0279C243.97 86.8116 240.878 84.2769 236.915 84.2769C232.953 84.2769 229.96 86.8116 229.96 90.0279C229.96 93.2442 233.052 95.6795 236.915 95.6795C240.779 95.6795 243.97 93.1448 243.97 90.0279ZM352.514 72.6826V103.688C352.514 104.597 351.786 105.328 350.887 105.328H340.812C339.913 105.328 339.184 104.59 339.184 103.688V102.41C336.092 104.945 332.038 106.5 327.496 106.5C317.639 106.5 309.913 99.3857 309.913 90.0279C309.913 80.6701 317.639 73.4636 327.496 73.4636C331.649 73.4636 335.42 74.7274 338.413 76.971V72.782C338.413 68.7847 335.901 66.25 332.038 66.25C329.173 66.25 327 67.5777 326.173 69.7077C325.889 70.439 325.203 70.9289 324.425 70.9289H313.911C312.665 70.9289 311.739 69.7219 312.078 68.5078C314.392 60.2292 321.821 54.4569 332.229 54.4569C343.918 54.4569 352.514 61.8622 352.514 72.6826ZM338.406 90.0279C338.406 86.8116 335.314 84.2769 331.352 84.2769C327.389 84.2769 324.397 86.8116 324.397 90.0279C324.397 93.2442 327.489 95.6795 331.352 95.6795C335.215 95.6795 338.406 93.1448 338.406 90.0279ZM359.93 90.2267H369.255C370.352 90.2267 371.3 90.9296 371.703 91.9591C372.439 93.8406 374.342 95.1967 376.592 95.1967C379.295 95.1967 381.425 93.5424 381.425 91.3982C381.425 88.2813 377.562 86.8187 373.5 85.9383C366.064 84.1846 357.948 80.3861 357.948 70.1479C357.948 59.9097 366.545 54.4569 376.302 54.4569C386.059 54.4569 392.944 59.8387 394.529 67.0665C394.861 68.593 393.722 70.0485 392.173 70.0485H382.585C381.687 70.0485 380.809 69.5373 380.512 68.6782C379.925 66.9955 378.276 65.7601 376.203 65.7601C373.882 65.7601 372.05 67.3221 372.05 69.1752C372.05 72.001 375.432 73.563 380.257 74.7274C387.694 76.5805 395.519 80.0879 395.519 90.1273C395.519 100.167 386.923 106.5 376.493 106.5C366.644 106.5 359.151 100.756 357.573 93.2016C357.255 91.6751 358.38 90.2267 359.93 90.2267ZM292.316 57.9501C292.019 69.5302 289.507 82.4522 285.206 92.5271C280.904 82.4522 278.392 69.5231 278.095 57.9501C278.059 56.665 277.048 55.6355 275.774 55.6355H265.5C264.191 55.6355 263.123 56.7218 263.151 58.0353C263.519 74.415 267.68 89.8717 274.762 103.553C275.335 104.654 276.481 105.336 277.713 105.336H292.72C293.951 105.336 295.097 104.654 295.67 103.553C302.753 89.8788 306.906 74.4221 307.281 58.0353C307.309 56.7218 306.234 55.6355 304.932 55.6355H294.658C293.385 55.6355 292.366 56.665 292.338 57.9501H292.316Z" fill="#191B28"/>
<defs>
<clipPath id="clip0_81_39674">
<rect width="141.509" height="142" rx="70.7547" fill="white"/>
</clipPath>
</defs>
</svg>
